<svg width="108" height="46" viewBox="0 0 108 46" fill="none" xmlns="http://www.w3.org/2000/svg">
<rect width="108" height="46" rx="23" fill="#D10014"/>
<path d="M20.9975 31.176V27.72H21.5095C21.8082 27.72 22.0695 27.6027 22.2935 27.368C22.5175 27.1227 22.7095 26.7387 22.8695 26.216C23.0295 25.6827 23.1575 24.9733 23.2535 24.088C23.3495 23.2027 23.4188 22.1093 23.4615 20.808L23.5415 17.64H30.5815V27.72H31.9895V31.176H30.7095V29H22.2775V31.176H20.9975ZM23.4295 27.72H29.1415V18.92H24.8695L24.8215 20.984C24.7895 22.328 24.7202 23.4533 24.6135 24.36C24.5068 25.2667 24.3575 25.992 24.1655 26.536C23.9735 27.08 23.7282 27.4747 23.4295 27.72ZM33.0269 26.584C33.0269 26.0507 33.1762 25.592 33.4749 25.208C33.7842 24.8133 34.2055 24.5093 34.7389 24.296C35.2722 24.0827 35.8909 23.976 36.5949 23.976C36.9682 23.976 37.3629 24.008 37.7789 24.072C38.1949 24.1253 38.5629 24.2107 38.8829 24.328V23.72C38.8829 23.08 38.6909 22.5787 38.3069 22.216C37.9229 21.8427 37.3789 21.656 36.6749 21.656C36.2162 21.656 35.7735 21.7413 35.3469 21.912C34.9309 22.072 34.4882 22.3067 34.0189 22.616L33.5069 21.624C34.0509 21.2507 34.5949 20.9733 35.1389 20.792C35.6829 20.6 36.2482 20.504 36.8349 20.504C37.9015 20.504 38.7442 20.8027 39.3629 21.4C39.9815 21.9867 40.2909 22.808 40.2909 23.864V27.4C40.2909 27.5707 40.3229 27.6987 40.3869 27.784C40.4615 27.8587 40.5789 27.9013 40.7389 27.912V29C40.6002 29.0213 40.4775 29.0373 40.3709 29.048C40.2749 29.0587 40.1949 29.064 40.1309 29.064C39.8002 29.064 39.5495 28.9733 39.3789 28.792C39.2189 28.6107 39.1282 28.4187 39.1069 28.216L39.0749 27.688C38.7122 28.1573 38.2375 28.52 37.6509 28.776C37.0642 29.032 36.4829 29.16 35.9069 29.16C35.3522 29.16 34.8562 29.048 34.4189 28.824C33.9815 28.5893 33.6402 28.28 33.3949 27.896C33.1495 27.5013 33.0269 27.064 33.0269 26.584ZM38.4669 27.176C38.5949 27.0267 38.6962 26.8773 38.7709 26.728C38.8455 26.568 38.8829 26.4347 38.8829 26.328V25.288C38.5522 25.16 38.2055 25.064 37.8429 25C37.4802 24.9253 37.1229 24.888 36.7709 24.888C36.0562 24.888 35.4749 25.032 35.0269 25.32C34.5895 25.5973 34.3709 25.9813 34.3709 26.472C34.3709 26.7387 34.4402 27 34.5789 27.256C34.7282 27.5013 34.9415 27.704 35.2189 27.864C35.5069 28.024 35.8589 28.104 36.2749 28.104C36.7122 28.104 37.1282 28.0187 37.5229 27.848C37.9175 27.6667 38.2322 27.4427 38.4669 27.176ZM41.8063 29.064V27.8C42.0836 27.8 42.3289 27.7307 42.5423 27.592C42.7663 27.4427 42.9636 27.1973 43.1343 26.856C43.3049 26.504 43.4383 26.024 43.5343 25.416C43.6409 24.7973 43.7103 24.0133 43.7423 23.064L43.8383 20.648H49.5183V29H48.1103V21.896H45.0863L45.0543 23.192C45.0116 24.3333 44.9156 25.2827 44.7663 26.04C44.6169 26.7973 44.4089 27.3947 44.1423 27.832C43.8756 28.2693 43.5449 28.584 43.1503 28.776C42.7663 28.968 42.3183 29.064 41.8063 29.064ZM55.4883 29.16C54.8589 29.16 54.2829 29.048 53.7603 28.824C53.2483 28.5893 52.8003 28.2747 52.4163 27.88C52.0429 27.4747 51.7496 27.0107 51.5363 26.488C51.3336 25.9653 51.2323 25.4107 51.2323 24.824C51.2323 24.0347 51.4136 23.3147 51.7763 22.664C52.1389 22.0133 52.6403 21.4907 53.2803 21.096C53.9309 20.7013 54.6723 20.504 55.5043 20.504C56.3469 20.504 57.0776 20.7067 57.6963 21.112C58.3256 21.5067 58.8109 22.0293 59.1523 22.68C59.5043 23.32 59.6803 24.0133 59.6803 24.76C59.6803 24.8667 59.6749 24.9733 59.6643 25.08C59.6643 25.176 59.6589 25.2507 59.6483 25.304H52.7203C52.7629 25.848 52.9123 26.3333 53.1683 26.76C53.4349 27.176 53.7763 27.5067 54.1923 27.752C54.6083 27.9867 55.0563 28.104 55.5363 28.104C56.0483 28.104 56.5283 27.976 56.9763 27.72C57.4349 27.464 57.7496 27.128 57.9203 26.712L59.1363 27.048C58.9549 27.4533 58.6829 27.816 58.3203 28.136C57.9683 28.456 57.5469 28.7067 57.0563 28.888C56.5763 29.0693 56.0536 29.16 55.4883 29.16ZM52.6723 24.328H58.3683C58.3256 23.784 58.1709 23.304 57.9043 22.888C57.6376 22.472 57.2963 22.1467 56.8803 21.912C56.4643 21.6773 56.0056 21.56 55.5043 21.56C55.0136 21.56 54.5603 21.6773 54.1443 21.912C53.7283 22.1467 53.3869 22.472 53.1203 22.888C52.8643 23.304 52.7149 23.784 52.6723 24.328ZM64.9414 29.16C64.312 29.16 63.736 29.048 63.2134 28.824C62.7014 28.5893 62.2534 28.2747 61.8694 27.88C61.496 27.4747 61.2027 27.0107 60.9894 26.488C60.7867 25.9653 60.6854 25.4107 60.6854 24.824C60.6854 24.0347 60.8667 23.3147 61.2294 22.664C61.592 22.0133 62.0934 21.4907 62.7334 21.096C63.384 20.7013 64.1254 20.504 64.9574 20.504C65.8 20.504 66.5307 20.7067 67.1494 21.112C67.7787 21.5067 68.264 22.0293 68.6054 22.68C68.9574 23.32 69.1334 24.0133 69.1334 24.76C69.1334 24.8667 69.128 24.9733 69.1174 25.08C69.1174 25.176 69.112 25.2507 69.1014 25.304H62.1734C62.216 25.848 62.3654 26.3333 62.6214 26.76C62.888 27.176 63.2294 27.5067 63.6454 27.752C64.0614 27.9867 64.5094 28.104 64.9894 28.104C65.5014 28.104 65.9814 27.976 66.4294 27.72C66.888 27.464 67.2027 27.128 67.3734 26.712L68.5894 27.048C68.408 27.4533 68.136 27.816 67.7734 28.136C67.4214 28.456 67 28.7067 66.5094 28.888C66.0294 29.0693 65.5067 29.16 64.9414 29.16ZM62.1254 24.328H67.8214C67.7787 23.784 67.624 23.304 67.3574 22.888C67.0907 22.472 66.7494 22.1467 66.3334 21.912C65.9174 21.6773 65.4587 21.56 64.9574 21.56C64.4667 21.56 64.0134 21.6773 63.5974 21.912C63.1814 22.1467 62.84 22.472 62.5734 22.888C62.3174 23.304 62.168 23.784 62.1254 24.328Z" fill="white"/>
<path d="M88.5303 23.5303C88.8232 23.2374 88.8232 22.7626 88.5303 22.4697L83.7574 17.6967C83.4645 17.4038 82.9896 17.4038 82.6967 17.6967C82.4038 17.9896 82.4038 18.4645 82.6967 18.7574L86.9393 23L82.6967 27.2426C82.4038 27.5355 82.4038 28.0104 82.6967 28.3033C82.9896 28.5962 83.4645 28.5962 83.7574 28.3033L88.5303 23.5303ZM76 23.75H88V22.25H76V23.75Z" fill="white"/>
</svg>
